<mxfile host="app.diagrams.net" modified="2022-03-12T12:39:52.392Z" agent="5.0 (Windows NT 10.0; Win64; x64) AppleWebKit/537.36 (KHTML, like Gecko) Chrome/99.0.4844.51 Safari/537.36" etag="ryTn3uIYyPTHEtActGwT" version="17.1.2" type="github">
  <diagram name="Page-1" id="42789a77-a242-8287-6e28-9cd8cfd52e62">
    <mxGraphModel dx="1673" dy="1746" grid="1" gridSize="10" guides="1" tooltips="1" connect="1" arrows="1" fold="1" page="1" pageScale="1" pageWidth="1100" pageHeight="850" background="none" math="0" shadow="0">
      <root>
        <mxCell id="0" />
        <mxCell id="1" parent="0" />
        <mxCell id="1ea317790d2ca983-1" value="Make New Customers" style="ellipse;whiteSpace=wrap;html=1;rounded=0;shadow=1;comic=0;labelBackgroundColor=none;strokeWidth=1;fontFamily=Verdana;fontSize=12;align=center;" parent="1" vertex="1">
          <mxGeometry x="150" y="665" width="90" height="60" as="geometry" />
        </mxCell>
        <mxCell id="6v1Id_99yUcSAAxj-PqX-3" value="" style="edgeStyle=orthogonalEdgeStyle;rounded=0;orthogonalLoop=1;jettySize=auto;html=1;" parent="1" source="6v1Id_99yUcSAAxj-PqX-1" target="6v1Id_99yUcSAAxj-PqX-2" edge="1">
          <mxGeometry relative="1" as="geometry" />
        </mxCell>
        <mxCell id="6v1Id_99yUcSAAxj-PqX-1" value="Agent" style="shape=umlActor;verticalLabelPosition=bottom;verticalAlign=top;html=1;outlineConnect=0;" parent="1" vertex="1">
          <mxGeometry x="80" y="540" width="30" height="60" as="geometry" />
        </mxCell>
        <mxCell id="6v1Id_99yUcSAAxj-PqX-2" value="Admin" style="shape=umlActor;verticalLabelPosition=bottom;verticalAlign=top;html=1;outlineConnect=0;" parent="1" vertex="1">
          <mxGeometry x="80" y="190" width="30" height="60" as="geometry" />
        </mxCell>
        <mxCell id="6v1Id_99yUcSAAxj-PqX-8" value="Check Medical Claim Details" style="ellipse;whiteSpace=wrap;html=1;rounded=0;shadow=1;comic=0;labelBackgroundColor=none;strokeWidth=1;fontFamily=Verdana;fontSize=12;align=center;" parent="1" vertex="1">
          <mxGeometry x="260" y="630" width="120" height="70" as="geometry" />
        </mxCell>
        <mxCell id="6v1Id_99yUcSAAxj-PqX-9" value="Manage Payment" style="ellipse;whiteSpace=wrap;html=1;rounded=0;shadow=1;comic=0;labelBackgroundColor=none;strokeWidth=1;fontFamily=Verdana;fontSize=12;align=center;" parent="1" vertex="1">
          <mxGeometry x="140" y="390" width="110" height="70" as="geometry" />
        </mxCell>
        <mxCell id="6v1Id_99yUcSAAxj-PqX-10" value="Manage Insurance" style="ellipse;whiteSpace=wrap;html=1;rounded=0;shadow=1;comic=0;labelBackgroundColor=none;strokeWidth=1;fontFamily=Verdana;fontSize=12;align=center;" parent="1" vertex="1">
          <mxGeometry x="250" width="120" height="70" as="geometry" />
        </mxCell>
        <mxCell id="6v1Id_99yUcSAAxj-PqX-11" value="Manage Polices" style="ellipse;whiteSpace=wrap;html=1;rounded=0;shadow=1;comic=0;labelBackgroundColor=none;strokeWidth=1;fontFamily=Verdana;fontSize=12;align=center;" parent="1" vertex="1">
          <mxGeometry x="210" y="80" width="120" height="70" as="geometry" />
        </mxCell>
        <mxCell id="6v1Id_99yUcSAAxj-PqX-12" value="Book Ticket Online" style="ellipse;whiteSpace=wrap;html=1;rounded=0;shadow=1;comic=0;labelBackgroundColor=none;strokeWidth=1;fontFamily=Verdana;fontSize=12;align=center;" parent="1" vertex="1">
          <mxGeometry x="540" y="40" width="120" height="70" as="geometry" />
        </mxCell>
        <mxCell id="6v1Id_99yUcSAAxj-PqX-13" value="Cancel Ticket Counter" style="ellipse;whiteSpace=wrap;html=1;rounded=0;shadow=1;comic=0;labelBackgroundColor=none;strokeWidth=1;fontFamily=Verdana;fontSize=12;align=center;" parent="1" vertex="1">
          <mxGeometry x="550" y="660" width="120" height="70" as="geometry" />
        </mxCell>
        <mxCell id="6v1Id_99yUcSAAxj-PqX-14" value="Book Ticket Counter" style="ellipse;whiteSpace=wrap;html=1;rounded=0;shadow=1;comic=0;labelBackgroundColor=none;strokeWidth=1;fontFamily=Verdana;fontSize=12;align=center;" parent="1" vertex="1">
          <mxGeometry x="520" y="300" width="120" height="70" as="geometry" />
        </mxCell>
        <mxCell id="6v1Id_99yUcSAAxj-PqX-15" value="Cancel Ticket Online" style="ellipse;whiteSpace=wrap;html=1;rounded=0;shadow=1;comic=0;labelBackgroundColor=none;strokeWidth=1;fontFamily=Verdana;fontSize=12;align=center;" parent="1" vertex="1">
          <mxGeometry x="530" y="420" width="120" height="70" as="geometry" />
        </mxCell>
        <mxCell id="6v1Id_99yUcSAAxj-PqX-17" value="Customer" style="shape=umlActor;verticalLabelPosition=bottom;verticalAlign=top;html=1;outlineConnect=0;" parent="1" vertex="1">
          <mxGeometry x="1330" y="365" width="30" height="60" as="geometry" />
        </mxCell>
        <mxCell id="6v1Id_99yUcSAAxj-PqX-19" value="" style="endArrow=none;html=1;rounded=0;" parent="1" target="1ea317790d2ca983-1" edge="1">
          <mxGeometry width="50" height="50" relative="1" as="geometry">
            <mxPoint x="120" y="560" as="sourcePoint" />
            <mxPoint x="570" y="350" as="targetPoint" />
            <Array as="points">
              <mxPoint x="160" y="640" />
            </Array>
          </mxGeometry>
        </mxCell>
        <mxCell id="6v1Id_99yUcSAAxj-PqX-20" value="" style="endArrow=none;html=1;rounded=0;entryX=0;entryY=0.5;entryDx=0;entryDy=0;" parent="1" target="6v1Id_99yUcSAAxj-PqX-14" edge="1">
          <mxGeometry width="50" height="50" relative="1" as="geometry">
            <mxPoint x="110" y="560.0015384615385" as="sourcePoint" />
            <mxPoint x="203.56725831565768" y="675.1612410038865" as="targetPoint" />
          </mxGeometry>
        </mxCell>
        <mxCell id="6v1Id_99yUcSAAxj-PqX-21" value="" style="endArrow=none;html=1;rounded=0;" parent="1" edge="1">
          <mxGeometry width="50" height="50" relative="1" as="geometry">
            <mxPoint x="120" y="560" as="sourcePoint" />
            <mxPoint x="530" y="460" as="targetPoint" />
          </mxGeometry>
        </mxCell>
        <mxCell id="6v1Id_99yUcSAAxj-PqX-22" value="" style="endArrow=none;html=1;rounded=0;" parent="1" edge="1">
          <mxGeometry width="50" height="50" relative="1" as="geometry">
            <mxPoint x="122.87" y="560.0015384615385" as="sourcePoint" />
            <mxPoint x="280" y="640" as="targetPoint" />
          </mxGeometry>
        </mxCell>
        <mxCell id="6v1Id_99yUcSAAxj-PqX-23" value="" style="endArrow=none;html=1;rounded=0;entryX=0;entryY=1;entryDx=0;entryDy=0;" parent="1" target="6v1Id_99yUcSAAxj-PqX-12" edge="1">
          <mxGeometry width="50" height="50" relative="1" as="geometry">
            <mxPoint x="120" y="560" as="sourcePoint" />
            <mxPoint x="284.2606173744589" y="629.9981152711606" as="targetPoint" />
            <Array as="points">
              <mxPoint x="500" y="280" />
            </Array>
          </mxGeometry>
        </mxCell>
        <mxCell id="6v1Id_99yUcSAAxj-PqX-24" value="" style="endArrow=none;html=1;rounded=0;entryX=0.083;entryY=0.143;entryDx=0;entryDy=0;entryPerimeter=0;" parent="1" target="6v1Id_99yUcSAAxj-PqX-13" edge="1">
          <mxGeometry width="50" height="50" relative="1" as="geometry">
            <mxPoint x="120" y="560" as="sourcePoint" />
            <mxPoint x="530" y="505" as="targetPoint" />
          </mxGeometry>
        </mxCell>
        <mxCell id="6v1Id_99yUcSAAxj-PqX-25" value="" style="endArrow=none;html=1;rounded=0;exitX=0.317;exitY=1.014;exitDx=0;exitDy=0;exitPerimeter=0;" parent="1" edge="1" source="zCK_g5lJNB62o4PVmk3n-4">
          <mxGeometry width="50" height="50" relative="1" as="geometry">
            <mxPoint x="177.87" y="447.6515384615385" as="sourcePoint" />
            <mxPoint x="120" y="560" as="targetPoint" />
            <Array as="points">
              <mxPoint x="190" y="240" />
              <mxPoint x="130" y="310" />
            </Array>
          </mxGeometry>
        </mxCell>
        <mxCell id="6v1Id_99yUcSAAxj-PqX-26" value="" style="endArrow=none;html=1;rounded=0;exitX=1;exitY=0.3333333333333333;exitDx=0;exitDy=0;exitPerimeter=0;" parent="1" source="6v1Id_99yUcSAAxj-PqX-2" target="6v1Id_99yUcSAAxj-PqX-11" edge="1">
          <mxGeometry width="50" height="50" relative="1" as="geometry">
            <mxPoint x="120" y="200" as="sourcePoint" />
            <mxPoint x="170" y="150" as="targetPoint" />
          </mxGeometry>
        </mxCell>
        <mxCell id="6v1Id_99yUcSAAxj-PqX-27" value="" style="endArrow=none;html=1;rounded=0;entryX=0;entryY=0.5;entryDx=0;entryDy=0;" parent="1" target="6v1Id_99yUcSAAxj-PqX-10" edge="1">
          <mxGeometry width="50" height="50" relative="1" as="geometry">
            <mxPoint x="110" y="210" as="sourcePoint" />
            <mxPoint x="180" y="230" as="targetPoint" />
          </mxGeometry>
        </mxCell>
        <mxCell id="6v1Id_99yUcSAAxj-PqX-28" value="" style="endArrow=none;html=1;rounded=0;exitX=1;exitY=0.5;exitDx=0;exitDy=0;" parent="1" source="6v1Id_99yUcSAAxj-PqX-12" target="6v1Id_99yUcSAAxj-PqX-17" edge="1">
          <mxGeometry width="50" height="50" relative="1" as="geometry">
            <mxPoint x="690" y="310" as="sourcePoint" />
            <mxPoint x="740" y="260" as="targetPoint" />
            <Array as="points">
              <mxPoint x="970" y="250" />
            </Array>
          </mxGeometry>
        </mxCell>
        <mxCell id="6v1Id_99yUcSAAxj-PqX-29" value="" style="endArrow=none;html=1;rounded=0;exitX=1;exitY=0.5;exitDx=0;exitDy=0;entryX=0;entryY=0.3333333333333333;entryDx=0;entryDy=0;entryPerimeter=0;" parent="1" target="6v1Id_99yUcSAAxj-PqX-17" edge="1">
          <mxGeometry width="50" height="50" relative="1" as="geometry">
            <mxPoint x="640" y="334.46000000000004" as="sourcePoint" />
            <mxPoint x="950" y="390" as="targetPoint" />
          </mxGeometry>
        </mxCell>
        <mxCell id="6v1Id_99yUcSAAxj-PqX-30" value="" style="endArrow=none;html=1;rounded=0;" parent="1" edge="1">
          <mxGeometry width="50" height="50" relative="1" as="geometry">
            <mxPoint x="650" y="450" as="sourcePoint" />
            <mxPoint x="1320" y="390" as="targetPoint" />
          </mxGeometry>
        </mxCell>
        <mxCell id="6v1Id_99yUcSAAxj-PqX-31" value="" style="endArrow=none;html=1;rounded=0;exitX=0.958;exitY=0.2;exitDx=0;exitDy=0;exitPerimeter=0;" parent="1" source="6v1Id_99yUcSAAxj-PqX-13" edge="1">
          <mxGeometry width="50" height="50" relative="1" as="geometry">
            <mxPoint x="640" y="625" as="sourcePoint" />
            <mxPoint x="1320" y="390" as="targetPoint" />
          </mxGeometry>
        </mxCell>
        <mxCell id="6v1Id_99yUcSAAxj-PqX-32" value="Book Ticket By System" style="ellipse;whiteSpace=wrap;html=1;rounded=0;shadow=1;comic=0;labelBackgroundColor=none;strokeWidth=1;fontFamily=Verdana;fontSize=12;align=center;" parent="1" vertex="1">
          <mxGeometry x="530" y="180" width="120" height="70" as="geometry" />
        </mxCell>
        <mxCell id="6v1Id_99yUcSAAxj-PqX-33" value="Cancel Ticket By System" style="ellipse;whiteSpace=wrap;html=1;rounded=0;shadow=1;comic=0;labelBackgroundColor=none;strokeWidth=1;fontFamily=Verdana;fontSize=12;align=center;" parent="1" vertex="1">
          <mxGeometry x="530" y="530" width="120" height="70" as="geometry" />
        </mxCell>
        <mxCell id="6v1Id_99yUcSAAxj-PqX-37" value="" style="endArrow=classic;html=1;rounded=0;dashed=1;" parent="1" target="6v1Id_99yUcSAAxj-PqX-32" edge="1" source="6v1Id_99yUcSAAxj-PqX-14">
          <mxGeometry width="50" height="50" relative="1" as="geometry">
            <mxPoint x="620" y="310" as="sourcePoint" />
            <mxPoint x="670" y="260" as="targetPoint" />
          </mxGeometry>
        </mxCell>
        <mxCell id="6v1Id_99yUcSAAxj-PqX-38" value="" style="endArrow=classic;html=1;rounded=0;dashed=1;exitX=0.5;exitY=1;exitDx=0;exitDy=0;entryX=0.5;entryY=0;entryDx=0;entryDy=0;" parent="1" source="6v1Id_99yUcSAAxj-PqX-12" target="6v1Id_99yUcSAAxj-PqX-32" edge="1">
          <mxGeometry width="50" height="50" relative="1" as="geometry">
            <mxPoint x="630" y="320" as="sourcePoint" />
            <mxPoint x="540" y="170" as="targetPoint" />
            <Array as="points" />
          </mxGeometry>
        </mxCell>
        <mxCell id="6v1Id_99yUcSAAxj-PqX-39" value="&amp;lt;Include&amp;gt;" style="text;html=1;strokeColor=none;fillColor=none;align=center;verticalAlign=middle;whiteSpace=wrap;rounded=0;" parent="1" vertex="1">
          <mxGeometry x="590" y="140" width="60" height="30" as="geometry" />
        </mxCell>
        <mxCell id="6v1Id_99yUcSAAxj-PqX-40" value="&amp;lt;Include&amp;gt;" style="text;html=1;strokeColor=none;fillColor=none;align=center;verticalAlign=middle;whiteSpace=wrap;rounded=0;" parent="1" vertex="1">
          <mxGeometry x="590" y="260" width="60" height="30" as="geometry" />
        </mxCell>
        <mxCell id="6v1Id_99yUcSAAxj-PqX-43" value="" style="endArrow=classic;html=1;rounded=0;dashed=1;entryX=0.583;entryY=-0.057;entryDx=0;entryDy=0;exitX=0.583;exitY=1;exitDx=0;exitDy=0;entryPerimeter=0;exitPerimeter=0;" parent="1" source="6v1Id_99yUcSAAxj-PqX-15" target="6v1Id_99yUcSAAxj-PqX-33" edge="1">
          <mxGeometry width="50" height="50" relative="1" as="geometry">
            <mxPoint x="600" y="170" as="sourcePoint" />
            <mxPoint x="610" y="210" as="targetPoint" />
            <Array as="points" />
          </mxGeometry>
        </mxCell>
        <mxCell id="6v1Id_99yUcSAAxj-PqX-44" value="" style="endArrow=classic;html=1;rounded=0;dashed=1;exitX=0.5;exitY=0;exitDx=0;exitDy=0;entryX=0.592;entryY=1.043;entryDx=0;entryDy=0;entryPerimeter=0;" parent="1" source="6v1Id_99yUcSAAxj-PqX-13" target="6v1Id_99yUcSAAxj-PqX-33" edge="1">
          <mxGeometry width="50" height="50" relative="1" as="geometry">
            <mxPoint x="620.04" y="500.98" as="sourcePoint" />
            <mxPoint x="620" y="602" as="targetPoint" />
            <Array as="points" />
          </mxGeometry>
        </mxCell>
        <mxCell id="6v1Id_99yUcSAAxj-PqX-45" value="&amp;lt;Include&amp;gt;" style="text;html=1;strokeColor=none;fillColor=none;align=center;verticalAlign=middle;whiteSpace=wrap;rounded=0;" parent="1" vertex="1">
          <mxGeometry x="540" y="490" width="60" height="30" as="geometry" />
        </mxCell>
        <mxCell id="6v1Id_99yUcSAAxj-PqX-46" value="&amp;lt;Include&amp;gt;" style="text;html=1;strokeColor=none;fillColor=none;align=center;verticalAlign=middle;whiteSpace=wrap;rounded=0;" parent="1" vertex="1">
          <mxGeometry x="550" y="620" width="60" height="30" as="geometry" />
        </mxCell>
        <mxCell id="6v1Id_99yUcSAAxj-PqX-47" value="Request Data" style="ellipse;whiteSpace=wrap;html=1;rounded=0;shadow=1;comic=0;labelBackgroundColor=none;strokeWidth=1;fontFamily=Verdana;fontSize=12;align=center;" parent="1" vertex="1">
          <mxGeometry x="470" y="750" width="120" height="70" as="geometry" />
        </mxCell>
        <mxCell id="zCK_g5lJNB62o4PVmk3n-2" value="" style="endArrow=none;html=1;rounded=0;exitX=0;exitY=0.5;exitDx=0;exitDy=0;" edge="1" parent="1" source="6v1Id_99yUcSAAxj-PqX-47">
          <mxGeometry width="50" height="50" relative="1" as="geometry">
            <mxPoint x="670" y="85" as="sourcePoint" />
            <mxPoint x="130" y="560" as="targetPoint" />
            <Array as="points">
              <mxPoint x="310" y="730" />
              <mxPoint x="270" y="700" />
              <mxPoint x="230" y="650" />
            </Array>
          </mxGeometry>
        </mxCell>
        <mxCell id="zCK_g5lJNB62o4PVmk3n-3" value="" style="endArrow=none;html=1;rounded=0;exitX=1;exitY=0.614;exitDx=0;exitDy=0;exitPerimeter=0;" edge="1" parent="1" source="6v1Id_99yUcSAAxj-PqX-47">
          <mxGeometry width="50" height="50" relative="1" as="geometry">
            <mxPoint x="720" y="420" as="sourcePoint" />
            <mxPoint x="1320" y="390" as="targetPoint" />
            <Array as="points">
              <mxPoint x="680" y="760" />
              <mxPoint x="950" y="640" />
            </Array>
          </mxGeometry>
        </mxCell>
        <mxCell id="zCK_g5lJNB62o4PVmk3n-4" value="System Login" style="ellipse;whiteSpace=wrap;html=1;rounded=0;shadow=1;comic=0;labelBackgroundColor=none;strokeWidth=1;fontFamily=Verdana;fontSize=12;align=center;" vertex="1" parent="1">
          <mxGeometry x="320" y="150" width="120" height="70" as="geometry" />
        </mxCell>
        <mxCell id="zCK_g5lJNB62o4PVmk3n-5" value="" style="endArrow=none;html=1;rounded=0;entryX=0;entryY=0.5;entryDx=0;entryDy=0;" edge="1" parent="1" target="zCK_g5lJNB62o4PVmk3n-4">
          <mxGeometry width="50" height="50" relative="1" as="geometry">
            <mxPoint x="110" y="210" as="sourcePoint" />
            <mxPoint x="540" y="390" as="targetPoint" />
            <Array as="points" />
          </mxGeometry>
        </mxCell>
        <mxCell id="zCK_g5lJNB62o4PVmk3n-6" value="" style="endArrow=none;html=1;rounded=0;exitX=0.3;exitY=0.971;exitDx=0;exitDy=0;exitPerimeter=0;" edge="1" parent="1" source="6v1Id_99yUcSAAxj-PqX-9">
          <mxGeometry width="50" height="50" relative="1" as="geometry">
            <mxPoint x="187.8699999999999" y="457.6515384615386" as="sourcePoint" />
            <mxPoint x="120" y="560" as="targetPoint" />
          </mxGeometry>
        </mxCell>
        <mxCell id="zCK_g5lJNB62o4PVmk3n-7" value="Error Login Details" style="ellipse;whiteSpace=wrap;html=1;rounded=0;shadow=1;comic=0;labelBackgroundColor=none;strokeWidth=1;fontFamily=Verdana;fontSize=12;align=center;" vertex="1" parent="1">
          <mxGeometry x="370" y="-70" width="120" height="70" as="geometry" />
        </mxCell>
        <mxCell id="zCK_g5lJNB62o4PVmk3n-8" value="Login Successful" style="ellipse;whiteSpace=wrap;html=1;rounded=0;shadow=1;comic=0;labelBackgroundColor=none;strokeWidth=1;fontFamily=Verdana;fontSize=12;align=center;" vertex="1" parent="1">
          <mxGeometry x="510" y="-70" width="120" height="70" as="geometry" />
        </mxCell>
        <mxCell id="zCK_g5lJNB62o4PVmk3n-11" value="" style="endArrow=classic;html=1;rounded=0;dashed=1;exitX=0.5;exitY=1;exitDx=0;exitDy=0;" edge="1" parent="1" target="zCK_g5lJNB62o4PVmk3n-7">
          <mxGeometry width="50" height="50" relative="1" as="geometry">
            <mxPoint x="420" as="sourcePoint" />
            <mxPoint x="410" y="70" as="targetPoint" />
            <Array as="points">
              <mxPoint x="380" y="150" />
            </Array>
          </mxGeometry>
        </mxCell>
        <mxCell id="zCK_g5lJNB62o4PVmk3n-12" value="" style="endArrow=classic;html=1;rounded=0;dashed=1;exitX=0.75;exitY=0;exitDx=0;exitDy=0;exitPerimeter=0;entryX=0.5;entryY=1;entryDx=0;entryDy=0;" edge="1" parent="1" source="zCK_g5lJNB62o4PVmk3n-4" target="zCK_g5lJNB62o4PVmk3n-8">
          <mxGeometry width="50" height="50" relative="1" as="geometry">
            <mxPoint x="430" y="10" as="sourcePoint" />
            <mxPoint x="560" y="10" as="targetPoint" />
            <Array as="points" />
          </mxGeometry>
        </mxCell>
        <mxCell id="zCK_g5lJNB62o4PVmk3n-13" value="&amp;lt;Include&amp;gt;" style="text;html=1;strokeColor=none;fillColor=none;align=center;verticalAlign=middle;whiteSpace=wrap;rounded=0;" vertex="1" parent="1">
          <mxGeometry x="400" y="30" width="60" height="30" as="geometry" />
        </mxCell>
        <mxCell id="zCK_g5lJNB62o4PVmk3n-14" value="&amp;lt;Include&amp;gt;" style="text;html=1;strokeColor=none;fillColor=none;align=center;verticalAlign=middle;whiteSpace=wrap;rounded=0;" vertex="1" parent="1">
          <mxGeometry x="480" y="10" width="60" height="30" as="geometry" />
        </mxCell>
        <mxCell id="zCK_g5lJNB62o4PVmk3n-16" value="&amp;nbsp;" style="ellipse;whiteSpace=wrap;html=1;rounded=0;shadow=1;comic=0;labelBackgroundColor=none;strokeWidth=1;fontFamily=Verdana;fontSize=12;align=center;" vertex="1" parent="1">
          <mxGeometry x="170" y="-150" width="180" height="110" as="geometry" />
        </mxCell>
        <mxCell id="zCK_g5lJNB62o4PVmk3n-17" value="" style="endArrow=none;html=1;rounded=0;entryX=0.292;entryY=0.971;entryDx=0;entryDy=0;entryPerimeter=0;" edge="1" parent="1" target="zCK_g5lJNB62o4PVmk3n-16">
          <mxGeometry width="50" height="50" relative="1" as="geometry">
            <mxPoint x="110" y="205" as="sourcePoint" />
            <mxPoint x="250" y="30" as="targetPoint" />
          </mxGeometry>
        </mxCell>
        <mxCell id="zCK_g5lJNB62o4PVmk3n-18" value="Extension Point Profile Help&amp;nbsp;&lt;br&gt;Privacy Help" style="text;html=1;strokeColor=none;fillColor=none;align=center;verticalAlign=middle;whiteSpace=wrap;rounded=0;" vertex="1" parent="1">
          <mxGeometry x="212.5" y="-83" width="95" height="30" as="geometry" />
        </mxCell>
        <mxCell id="zCK_g5lJNB62o4PVmk3n-19" value="" style="endArrow=none;html=1;rounded=0;exitX=0;exitY=0.5;exitDx=0;exitDy=0;entryX=1;entryY=0.5;entryDx=0;entryDy=0;" edge="1" parent="1" source="zCK_g5lJNB62o4PVmk3n-16" target="zCK_g5lJNB62o4PVmk3n-16">
          <mxGeometry width="50" height="50" relative="1" as="geometry">
            <mxPoint x="150" y="-90" as="sourcePoint" />
            <mxPoint x="350" y="-85" as="targetPoint" />
          </mxGeometry>
        </mxCell>
        <mxCell id="zCK_g5lJNB62o4PVmk3n-20" value="Profile Help" style="ellipse;whiteSpace=wrap;html=1;rounded=0;shadow=1;comic=0;labelBackgroundColor=none;strokeWidth=1;fontFamily=Verdana;fontSize=12;align=center;" vertex="1" parent="1">
          <mxGeometry x="430" y="-190" width="120" height="70" as="geometry" />
        </mxCell>
        <mxCell id="zCK_g5lJNB62o4PVmk3n-21" value="" style="endArrow=classic;html=1;rounded=0;dashed=1;entryX=0.768;entryY=0.062;entryDx=0;entryDy=0;exitX=0;exitY=0.5;exitDx=0;exitDy=0;entryPerimeter=0;" edge="1" parent="1" source="zCK_g5lJNB62o4PVmk3n-20" target="zCK_g5lJNB62o4PVmk3n-16">
          <mxGeometry width="50" height="50" relative="1" as="geometry">
            <mxPoint x="574" y="-280" as="sourcePoint" />
            <mxPoint x="417.96000000000004" y="-131.04999999999995" as="targetPoint" />
            <Array as="points" />
          </mxGeometry>
        </mxCell>
        <mxCell id="zCK_g5lJNB62o4PVmk3n-22" value="&lt;span style=&quot;color: rgba(0 , 0 , 0 , 0) ; font-family: monospace ; font-size: 0px&quot;&gt;%3CmxGraphModel%3E%3Croot%3E%3CmxCell%20id%3D%220%22%2F%3E%3CmxCell%20id%3D%221%22%20parent%3D%220%22%2F%3E%3CmxCell%20id%3D%222%22%20value%3D%22Extension%20Point%20Profile%20Help%26amp%3Bnbsp%3B%26lt%3Bbr%26gt%3BPrivacy%20Help%22%20style%3D%22text%3Bhtml%3D1%3BstrokeColor%3Dnone%3BfillColor%3Dnone%3Balign%3Dcenter%3BverticalAlign%3Dmiddle%3BwhiteSpace%3Dwrap%3Brounded%3D0%3B%22%20vertex%3D%221%22%20parent%3D%221%22%3E%3CmxGeometry%20x%3D%22212.5%22%20y%3D%22-80%22%20width%3D%2295%22%20height%3D%2230%22%20as%3D%22geometry%22%2F%3E%3C%2FmxCell%3E%3C%2Froot%3E%3C%2FmxGraphModel%3E&lt;/span&gt;&lt;span style=&quot;color: rgba(0 , 0 , 0 , 0) ; font-family: monospace ; font-size: 0px&quot;&gt;%3CmxGraphModel%3E%3Croot%3E%3CmxCell%20id%3D%220%22%2F%3E%3CmxCell%20id%3D%221%22%20parent%3D%220%22%2F%3E%3CmxCell%20id%3D%222%22%20value%3D%22Extension%20Point%20Profile%20Help%26amp%3Bnbsp%3B%26lt%3Bbr%26gt%3BPrivacy%20Help%22%20style%3D%22text%3Bhtml%3D1%3BstrokeColor%3Dnone%3BfillColor%3Dnone%3Balign%3Dcenter%3BverticalAlign%3Dmiddle%3BwhiteSpace%3Dwrap%3Brounded%3D0%3B%22%20vertex%3D%221%22%20parent%3D%221%22%3E%3CmxGeometry%20x%3D%22212.5%22%20y%3D%22-80%22%20width%3D%2295%22%20height%3D%2230%22%20as%3D%22geometry%22%2F%3E%3C%2FmxCell%3E%3C%2Froot%3E%3C%2FmxGraphModel%3E&lt;/span&gt;" style="text;html=1;strokeColor=none;fillColor=none;align=center;verticalAlign=middle;whiteSpace=wrap;rounded=0;" vertex="1" parent="1">
          <mxGeometry x="110" y="-200" width="95" height="30" as="geometry" />
        </mxCell>
        <mxCell id="zCK_g5lJNB62o4PVmk3n-23" value="&amp;lt;exclude&amp;gt;" style="text;html=1;strokeColor=none;fillColor=none;align=center;verticalAlign=middle;whiteSpace=wrap;rounded=0;" vertex="1" parent="1">
          <mxGeometry x="350" y="-180" width="60" height="30" as="geometry" />
        </mxCell>
        <mxCell id="zCK_g5lJNB62o4PVmk3n-24" value="Set Up Profile" style="text;html=1;strokeColor=none;fillColor=none;align=center;verticalAlign=middle;whiteSpace=wrap;rounded=0;" vertex="1" parent="1">
          <mxGeometry x="230" y="-130" width="60" height="30" as="geometry" />
        </mxCell>
        <mxCell id="zCK_g5lJNB62o4PVmk3n-25" value="Fill Details" style="ellipse;whiteSpace=wrap;html=1;rounded=0;shadow=1;comic=0;labelBackgroundColor=none;strokeWidth=1;fontFamily=Verdana;fontSize=12;align=center;" vertex="1" parent="1">
          <mxGeometry x="710" y="220" width="120" height="70" as="geometry" />
        </mxCell>
        <mxCell id="zCK_g5lJNB62o4PVmk3n-26" value="" style="endArrow=classic;html=1;rounded=0;dashed=1;entryX=0.925;entryY=0.857;entryDx=0;entryDy=0;entryPerimeter=0;" edge="1" parent="1" source="zCK_g5lJNB62o4PVmk3n-25" target="6v1Id_99yUcSAAxj-PqX-12">
          <mxGeometry width="50" height="50" relative="1" as="geometry">
            <mxPoint x="610" y="120" as="sourcePoint" />
            <mxPoint x="600" y="190" as="targetPoint" />
            <Array as="points" />
          </mxGeometry>
        </mxCell>
        <mxCell id="zCK_g5lJNB62o4PVmk3n-27" value="" style="endArrow=classic;html=1;rounded=0;dashed=1;entryX=0.933;entryY=0.229;entryDx=0;entryDy=0;entryPerimeter=0;exitX=0.025;exitY=0.7;exitDx=0;exitDy=0;exitPerimeter=0;" edge="1" parent="1" source="zCK_g5lJNB62o4PVmk3n-25" target="6v1Id_99yUcSAAxj-PqX-14">
          <mxGeometry width="50" height="50" relative="1" as="geometry">
            <mxPoint x="722.6765302382273" y="254.66298086263123" as="sourcePoint" />
            <mxPoint x="657.96" y="242.99" as="targetPoint" />
            <Array as="points" />
          </mxGeometry>
        </mxCell>
        <mxCell id="zCK_g5lJNB62o4PVmk3n-28" value="&amp;lt;Include&amp;gt;" style="text;html=1;strokeColor=none;fillColor=none;align=center;verticalAlign=middle;whiteSpace=wrap;rounded=0;" vertex="1" parent="1">
          <mxGeometry x="670" y="290" width="60" height="30" as="geometry" />
        </mxCell>
        <mxCell id="zCK_g5lJNB62o4PVmk3n-29" value="&amp;lt;Include&amp;gt;" style="text;html=1;strokeColor=none;fillColor=none;align=center;verticalAlign=middle;whiteSpace=wrap;rounded=0;" vertex="1" parent="1">
          <mxGeometry x="690" y="150" width="60" height="30" as="geometry" />
        </mxCell>
        <mxCell id="zCK_g5lJNB62o4PVmk3n-30" value="Do Payment" style="ellipse;whiteSpace=wrap;html=1;rounded=0;shadow=1;comic=0;labelBackgroundColor=none;strokeWidth=1;fontFamily=Verdana;fontSize=12;align=center;" vertex="1" parent="1">
          <mxGeometry x="162.5" y="290" width="87.5" height="60" as="geometry" />
        </mxCell>
        <mxCell id="zCK_g5lJNB62o4PVmk3n-31" value="Cheque Payment&amp;nbsp;" style="ellipse;whiteSpace=wrap;html=1;rounded=0;shadow=1;comic=0;labelBackgroundColor=none;strokeWidth=1;fontFamily=Verdana;fontSize=12;align=center;" vertex="1" parent="1">
          <mxGeometry x="307.5" y="230" width="87.5" height="60" as="geometry" />
        </mxCell>
        <mxCell id="zCK_g5lJNB62o4PVmk3n-32" value="Cash Payment" style="ellipse;whiteSpace=wrap;html=1;rounded=0;shadow=1;comic=0;labelBackgroundColor=none;strokeWidth=1;fontFamily=Verdana;fontSize=12;align=center;" vertex="1" parent="1">
          <mxGeometry x="300" y="310" width="87.5" height="60" as="geometry" />
        </mxCell>
        <mxCell id="zCK_g5lJNB62o4PVmk3n-33" value="" style="endArrow=classic;html=1;rounded=0;dashed=1;entryX=0.5;entryY=1;entryDx=0;entryDy=0;exitX=0.573;exitY=0.029;exitDx=0;exitDy=0;exitPerimeter=0;" edge="1" parent="1" source="6v1Id_99yUcSAAxj-PqX-9" target="zCK_g5lJNB62o4PVmk3n-30">
          <mxGeometry width="50" height="50" relative="1" as="geometry">
            <mxPoint x="592.8790327882552" y="310.04031614261476" as="sourcePoint" />
            <mxPoint x="597.0867733380708" y="259.95871994315166" as="targetPoint" />
          </mxGeometry>
        </mxCell>
        <mxCell id="zCK_g5lJNB62o4PVmk3n-34" value="" style="endArrow=none;html=1;rounded=0;exitX=0.406;exitY=1.017;exitDx=0;exitDy=0;exitPerimeter=0;entryX=0.5;entryY=0;entryDx=0;entryDy=0;" edge="1" parent="1" source="zCK_g5lJNB62o4PVmk3n-31" target="zCK_g5lJNB62o4PVmk3n-32">
          <mxGeometry width="50" height="50" relative="1" as="geometry">
            <mxPoint x="490" y="420" as="sourcePoint" />
            <mxPoint x="540" y="370" as="targetPoint" />
          </mxGeometry>
        </mxCell>
        <mxCell id="zCK_g5lJNB62o4PVmk3n-38" value="&amp;lt;Include&amp;gt;" style="text;html=1;strokeColor=none;fillColor=none;align=center;verticalAlign=middle;whiteSpace=wrap;rounded=0;" vertex="1" parent="1">
          <mxGeometry x="205" y="360" width="60" height="30" as="geometry" />
        </mxCell>
        <mxCell id="zCK_g5lJNB62o4PVmk3n-39" value="" style="endArrow=classic;html=1;rounded=0;entryX=1;entryY=0.35;entryDx=0;entryDy=0;entryPerimeter=0;" edge="1" parent="1" target="zCK_g5lJNB62o4PVmk3n-30">
          <mxGeometry width="50" height="50" relative="1" as="geometry">
            <mxPoint x="340" y="300" as="sourcePoint" />
            <mxPoint x="260" y="310" as="targetPoint" />
          </mxGeometry>
        </mxCell>
        <mxCell id="zCK_g5lJNB62o4PVmk3n-40" value="Visiter" style="shape=umlActor;verticalLabelPosition=bottom;verticalAlign=top;html=1;outlineConnect=0;" vertex="1" parent="1">
          <mxGeometry x="1320" y="20" width="30" height="60" as="geometry" />
        </mxCell>
        <mxCell id="zCK_g5lJNB62o4PVmk3n-43" value="" style="edgeStyle=orthogonalEdgeStyle;rounded=0;orthogonalLoop=1;jettySize=auto;html=1;exitX=0.3;exitY=-0.05;exitDx=0;exitDy=0;exitPerimeter=0;" edge="1" parent="1" source="6v1Id_99yUcSAAxj-PqX-17">
          <mxGeometry relative="1" as="geometry">
            <mxPoint x="1114.5" y="410" as="sourcePoint" />
            <mxPoint x="1340" y="100" as="targetPoint" />
            <Array as="points">
              <mxPoint x="1339" y="300" />
              <mxPoint x="1340" y="300" />
              <mxPoint x="1340" y="120" />
            </Array>
          </mxGeometry>
        </mxCell>
        <mxCell id="zCK_g5lJNB62o4PVmk3n-44" value="" style="ellipse;whiteSpace=wrap;html=1;rounded=0;shadow=1;comic=0;labelBackgroundColor=none;strokeWidth=1;fontFamily=Verdana;fontSize=12;align=center;" vertex="1" parent="1">
          <mxGeometry x="1050" y="-103" width="210" height="93" as="geometry" />
        </mxCell>
        <mxCell id="zCK_g5lJNB62o4PVmk3n-45" value="Ext P : If Visiter Entered Wrong Details" style="text;html=1;strokeColor=none;fillColor=none;align=center;verticalAlign=middle;whiteSpace=wrap;rounded=0;" vertex="1" parent="1">
          <mxGeometry x="1105" y="-50" width="100" height="30" as="geometry" />
        </mxCell>
        <mxCell id="zCK_g5lJNB62o4PVmk3n-46" value="&lt;span style=&quot;font-family: &amp;#34;verdana&amp;#34;&quot;&gt;Register To the System&lt;/span&gt;" style="text;html=1;strokeColor=none;fillColor=none;align=center;verticalAlign=middle;whiteSpace=wrap;rounded=0;" vertex="1" parent="1">
          <mxGeometry x="1110" y="-90" width="90" height="30" as="geometry" />
        </mxCell>
        <mxCell id="zCK_g5lJNB62o4PVmk3n-47" value="" style="endArrow=none;html=1;rounded=0;exitX=0;exitY=0.5;exitDx=0;exitDy=0;entryX=1;entryY=0.5;entryDx=0;entryDy=0;" edge="1" parent="1">
          <mxGeometry width="50" height="50" relative="1" as="geometry">
            <mxPoint x="1056" y="-58" as="sourcePoint" />
            <mxPoint x="1256" y="-57.5" as="targetPoint" />
          </mxGeometry>
        </mxCell>
        <mxCell id="zCK_g5lJNB62o4PVmk3n-48" value="Ask to Re-Enter Details" style="ellipse;whiteSpace=wrap;html=1;rounded=0;shadow=1;comic=0;labelBackgroundColor=none;strokeWidth=1;fontFamily=Verdana;fontSize=12;align=center;" vertex="1" parent="1">
          <mxGeometry x="870" y="-160" width="120" height="57" as="geometry" />
        </mxCell>
        <mxCell id="zCK_g5lJNB62o4PVmk3n-49" value="&amp;lt;exclude&amp;gt;" style="text;html=1;strokeColor=none;fillColor=none;align=center;verticalAlign=middle;whiteSpace=wrap;rounded=0;" vertex="1" parent="1">
          <mxGeometry x="1010" y="-146.5" width="60" height="30" as="geometry" />
        </mxCell>
        <mxCell id="zCK_g5lJNB62o4PVmk3n-50" value="" style="endArrow=classic;html=1;rounded=0;dashed=1;exitX=1;exitY=0.5;exitDx=0;exitDy=0;" edge="1" parent="1" source="zCK_g5lJNB62o4PVmk3n-48" target="zCK_g5lJNB62o4PVmk3n-44">
          <mxGeometry width="50" height="50" relative="1" as="geometry">
            <mxPoint x="1281.76" y="30" as="sourcePoint" />
            <mxPoint x="1160" y="41.819999999999936" as="targetPoint" />
            <Array as="points" />
          </mxGeometry>
        </mxCell>
        <mxCell id="zCK_g5lJNB62o4PVmk3n-51" value="" style="ellipse;whiteSpace=wrap;html=1;rounded=0;shadow=1;comic=0;labelBackgroundColor=none;strokeWidth=1;fontFamily=Verdana;fontSize=12;align=center;" vertex="1" parent="1">
          <mxGeometry x="1062.5" y="-260" width="180" height="70" as="geometry" />
        </mxCell>
        <mxCell id="zCK_g5lJNB62o4PVmk3n-52" value="Send Verification" style="text;html=1;strokeColor=none;fillColor=none;align=center;verticalAlign=middle;whiteSpace=wrap;rounded=0;" vertex="1" parent="1">
          <mxGeometry x="1100" y="-260" width="105" height="30" as="geometry" />
        </mxCell>
        <mxCell id="zCK_g5lJNB62o4PVmk3n-53" value="Ext P: If&amp;nbsp; &amp;nbsp;verification Success" style="text;html=1;strokeColor=none;fillColor=none;align=center;verticalAlign=middle;whiteSpace=wrap;rounded=0;" vertex="1" parent="1">
          <mxGeometry x="1095" y="-220" width="125" height="30" as="geometry" />
        </mxCell>
        <mxCell id="zCK_g5lJNB62o4PVmk3n-54" value="" style="endArrow=none;html=1;rounded=0;exitX=0;exitY=0.5;exitDx=0;exitDy=0;entryX=1;entryY=0.5;entryDx=0;entryDy=0;" edge="1" parent="1" target="zCK_g5lJNB62o4PVmk3n-51">
          <mxGeometry width="50" height="50" relative="1" as="geometry">
            <mxPoint x="1062.5" y="-225.5" as="sourcePoint" />
            <mxPoint x="1262.5" y="-225" as="targetPoint" />
          </mxGeometry>
        </mxCell>
        <mxCell id="zCK_g5lJNB62o4PVmk3n-55" value="" style="endArrow=classic;html=1;rounded=0;dashed=1;entryX=0.5;entryY=1;entryDx=0;entryDy=0;exitX=0.5;exitY=0;exitDx=0;exitDy=0;" edge="1" parent="1" source="zCK_g5lJNB62o4PVmk3n-44" target="zCK_g5lJNB62o4PVmk3n-53">
          <mxGeometry width="50" height="50" relative="1" as="geometry">
            <mxPoint x="1165" y="60" as="sourcePoint" />
            <mxPoint x="1165" as="targetPoint" />
            <Array as="points" />
          </mxGeometry>
        </mxCell>
        <mxCell id="zCK_g5lJNB62o4PVmk3n-56" value="&amp;lt;exclude&amp;gt;" style="text;html=1;strokeColor=none;fillColor=none;align=center;verticalAlign=middle;whiteSpace=wrap;rounded=0;" vertex="1" parent="1">
          <mxGeometry x="600" y="-210" width="60" height="30" as="geometry" />
        </mxCell>
        <mxCell id="zCK_g5lJNB62o4PVmk3n-57" value="&amp;lt;Include&amp;gt;" style="text;html=1;strokeColor=none;fillColor=none;align=center;verticalAlign=middle;whiteSpace=wrap;rounded=0;" vertex="1" parent="1">
          <mxGeometry x="1160" y="-160" width="60" height="30" as="geometry" />
        </mxCell>
        <mxCell id="zCK_g5lJNB62o4PVmk3n-58" value="Add User To the System" style="ellipse;whiteSpace=wrap;html=1;rounded=0;shadow=1;comic=0;labelBackgroundColor=none;strokeWidth=1;fontFamily=Verdana;fontSize=12;align=center;" vertex="1" parent="1">
          <mxGeometry x="870" y="-260" width="120" height="70" as="geometry" />
        </mxCell>
        <mxCell id="zCK_g5lJNB62o4PVmk3n-59" value="" style="endArrow=classic;html=1;rounded=0;dashed=1;exitX=1.042;exitY=0.6;exitDx=0;exitDy=0;exitPerimeter=0;" edge="1" parent="1" source="zCK_g5lJNB62o4PVmk3n-58">
          <mxGeometry width="50" height="50" relative="1" as="geometry">
            <mxPoint x="1165" y="60" as="sourcePoint" />
            <mxPoint x="1060" y="-220" as="targetPoint" />
            <Array as="points" />
          </mxGeometry>
        </mxCell>
        <mxCell id="zCK_g5lJNB62o4PVmk3n-61" value="&amp;lt;exclude&amp;gt;" style="text;html=1;strokeColor=none;fillColor=none;align=center;verticalAlign=middle;whiteSpace=wrap;rounded=0;" vertex="1" parent="1">
          <mxGeometry x="1000" y="-250" width="60" height="30" as="geometry" />
        </mxCell>
        <mxCell id="zCK_g5lJNB62o4PVmk3n-62" value="" style="endArrow=none;html=1;rounded=0;entryX=0;entryY=0.3333333333333333;entryDx=0;entryDy=0;entryPerimeter=0;exitX=0.981;exitY=0.645;exitDx=0;exitDy=0;exitPerimeter=0;" edge="1" parent="1" source="zCK_g5lJNB62o4PVmk3n-44" target="zCK_g5lJNB62o4PVmk3n-40">
          <mxGeometry width="50" height="50" relative="1" as="geometry">
            <mxPoint x="750" y="-20" as="sourcePoint" />
            <mxPoint x="800" y="-70" as="targetPoint" />
          </mxGeometry>
        </mxCell>
        <mxCell id="zCK_g5lJNB62o4PVmk3n-63" value="Search Insuarance" style="ellipse;whiteSpace=wrap;html=1;rounded=0;shadow=1;comic=0;labelBackgroundColor=none;strokeWidth=1;fontFamily=Verdana;fontSize=12;align=center;" vertex="1" parent="1">
          <mxGeometry x="1097.5" y="20" width="120" height="70" as="geometry" />
        </mxCell>
        <mxCell id="zCK_g5lJNB62o4PVmk3n-65" value="" style="endArrow=none;html=1;rounded=0;exitX=0;exitY=0.3333333333333333;exitDx=0;exitDy=0;exitPerimeter=0;entryX=1.004;entryY=0.357;entryDx=0;entryDy=0;entryPerimeter=0;" edge="1" parent="1" source="zCK_g5lJNB62o4PVmk3n-40" target="zCK_g5lJNB62o4PVmk3n-63">
          <mxGeometry width="50" height="50" relative="1" as="geometry">
            <mxPoint x="750" y="90" as="sourcePoint" />
            <mxPoint x="800" y="40" as="targetPoint" />
          </mxGeometry>
        </mxCell>
        <mxCell id="zCK_g5lJNB62o4PVmk3n-66" value="Insurance Facility" style="ellipse;whiteSpace=wrap;html=1;rounded=0;shadow=1;comic=0;labelBackgroundColor=none;strokeWidth=1;fontFamily=Verdana;fontSize=12;align=center;" vertex="1" parent="1">
          <mxGeometry x="880" y="-60" width="120" height="70" as="geometry" />
        </mxCell>
        <mxCell id="zCK_g5lJNB62o4PVmk3n-67" value="Insurance Availability" style="ellipse;whiteSpace=wrap;html=1;rounded=0;shadow=1;comic=0;labelBackgroundColor=none;strokeWidth=1;fontFamily=Verdana;fontSize=12;align=center;" vertex="1" parent="1">
          <mxGeometry x="870" y="30" width="120" height="70" as="geometry" />
        </mxCell>
        <mxCell id="zCK_g5lJNB62o4PVmk3n-68" value="Insurance Payment&amp;nbsp;" style="ellipse;whiteSpace=wrap;html=1;rounded=0;shadow=1;comic=0;labelBackgroundColor=none;strokeWidth=1;fontFamily=Verdana;fontSize=12;align=center;" vertex="1" parent="1">
          <mxGeometry x="880" y="120" width="120" height="70" as="geometry" />
        </mxCell>
        <mxCell id="zCK_g5lJNB62o4PVmk3n-69" value="" style="endArrow=none;html=1;rounded=0;entryX=0.5;entryY=1;entryDx=0;entryDy=0;" edge="1" parent="1" target="zCK_g5lJNB62o4PVmk3n-66">
          <mxGeometry width="50" height="50" relative="1" as="geometry">
            <mxPoint x="1030" y="20" as="sourcePoint" />
            <mxPoint x="980" y="20" as="targetPoint" />
          </mxGeometry>
        </mxCell>
        <mxCell id="zCK_g5lJNB62o4PVmk3n-70" value="" style="endArrow=none;html=1;rounded=0;entryX=0.967;entryY=0.729;entryDx=0;entryDy=0;entryPerimeter=0;" edge="1" parent="1" target="zCK_g5lJNB62o4PVmk3n-68">
          <mxGeometry width="50" height="50" relative="1" as="geometry">
            <mxPoint x="1030" y="140" as="sourcePoint" />
            <mxPoint x="930" y="140" as="targetPoint" />
          </mxGeometry>
        </mxCell>
        <mxCell id="zCK_g5lJNB62o4PVmk3n-71" value="" style="endArrow=none;html=1;rounded=0;" edge="1" parent="1">
          <mxGeometry width="50" height="50" relative="1" as="geometry">
            <mxPoint x="1030" y="20" as="sourcePoint" />
            <mxPoint x="1030" y="140" as="targetPoint" />
          </mxGeometry>
        </mxCell>
        <mxCell id="zCK_g5lJNB62o4PVmk3n-73" value="" style="endArrow=classic;html=1;rounded=0;entryX=0.004;entryY=0.6;entryDx=0;entryDy=0;entryPerimeter=0;exitX=1;exitY=0.5;exitDx=0;exitDy=0;" edge="1" parent="1" source="zCK_g5lJNB62o4PVmk3n-67" target="zCK_g5lJNB62o4PVmk3n-63">
          <mxGeometry width="50" height="50" relative="1" as="geometry">
            <mxPoint x="750" y="80" as="sourcePoint" />
            <mxPoint x="800" y="30" as="targetPoint" />
          </mxGeometry>
        </mxCell>
        <mxCell id="zCK_g5lJNB62o4PVmk3n-74" value="Visiter" style="shape=umlActor;verticalLabelPosition=bottom;verticalAlign=top;html=1;outlineConnect=0;" vertex="1" parent="1">
          <mxGeometry x="2840" y="80" width="30" height="60" as="geometry" />
        </mxCell>
        <mxCell id="zCK_g5lJNB62o4PVmk3n-75" value="" style="ellipse;whiteSpace=wrap;html=1;rounded=0;shadow=1;comic=0;labelBackgroundColor=none;strokeWidth=1;fontFamily=Verdana;fontSize=12;align=center;" vertex="1" parent="1">
          <mxGeometry x="2570" y="-43" width="210" height="93" as="geometry" />
        </mxCell>
        <mxCell id="zCK_g5lJNB62o4PVmk3n-76" value="Ext P : If Visiter Entered Wrong Details" style="text;html=1;strokeColor=none;fillColor=none;align=center;verticalAlign=middle;whiteSpace=wrap;rounded=0;" vertex="1" parent="1">
          <mxGeometry x="2625" y="10" width="100" height="30" as="geometry" />
        </mxCell>
        <mxCell id="zCK_g5lJNB62o4PVmk3n-77" value="&lt;span style=&quot;font-family: &amp;#34;verdana&amp;#34;&quot;&gt;Register To the System&lt;/span&gt;" style="text;html=1;strokeColor=none;fillColor=none;align=center;verticalAlign=middle;whiteSpace=wrap;rounded=0;" vertex="1" parent="1">
          <mxGeometry x="2630" y="-30" width="90" height="30" as="geometry" />
        </mxCell>
        <mxCell id="zCK_g5lJNB62o4PVmk3n-78" value="" style="endArrow=none;html=1;rounded=0;exitX=0;exitY=0.5;exitDx=0;exitDy=0;entryX=1;entryY=0.5;entryDx=0;entryDy=0;" edge="1" parent="1">
          <mxGeometry width="50" height="50" relative="1" as="geometry">
            <mxPoint x="2576" y="2" as="sourcePoint" />
            <mxPoint x="2776" y="2.5" as="targetPoint" />
          </mxGeometry>
        </mxCell>
        <mxCell id="zCK_g5lJNB62o4PVmk3n-79" value="Ask to Re-Enter Details" style="ellipse;whiteSpace=wrap;html=1;rounded=0;shadow=1;comic=0;labelBackgroundColor=none;strokeWidth=1;fontFamily=Verdana;fontSize=12;align=center;" vertex="1" parent="1">
          <mxGeometry x="2390" y="-100" width="120" height="57" as="geometry" />
        </mxCell>
        <mxCell id="zCK_g5lJNB62o4PVmk3n-80" value="&amp;lt;exclude&amp;gt;" style="text;html=1;strokeColor=none;fillColor=none;align=center;verticalAlign=middle;whiteSpace=wrap;rounded=0;" vertex="1" parent="1">
          <mxGeometry x="2530" y="-86.5" width="60" height="30" as="geometry" />
        </mxCell>
        <mxCell id="zCK_g5lJNB62o4PVmk3n-81" value="" style="endArrow=classic;html=1;rounded=0;dashed=1;exitX=1;exitY=0.5;exitDx=0;exitDy=0;" edge="1" parent="1" source="zCK_g5lJNB62o4PVmk3n-79" target="zCK_g5lJNB62o4PVmk3n-75">
          <mxGeometry width="50" height="50" relative="1" as="geometry">
            <mxPoint x="2801.76" y="90" as="sourcePoint" />
            <mxPoint x="2680" y="101.81999999999994" as="targetPoint" />
            <Array as="points" />
          </mxGeometry>
        </mxCell>
        <mxCell id="zCK_g5lJNB62o4PVmk3n-82" value="" style="ellipse;whiteSpace=wrap;html=1;rounded=0;shadow=1;comic=0;labelBackgroundColor=none;strokeWidth=1;fontFamily=Verdana;fontSize=12;align=center;" vertex="1" parent="1">
          <mxGeometry x="2582.5" y="-200" width="180" height="70" as="geometry" />
        </mxCell>
        <mxCell id="zCK_g5lJNB62o4PVmk3n-83" value="Send Verification" style="text;html=1;strokeColor=none;fillColor=none;align=center;verticalAlign=middle;whiteSpace=wrap;rounded=0;" vertex="1" parent="1">
          <mxGeometry x="2620" y="-200" width="105" height="30" as="geometry" />
        </mxCell>
        <mxCell id="zCK_g5lJNB62o4PVmk3n-84" value="Ext P: If&amp;nbsp; &amp;nbsp;verification Success" style="text;html=1;strokeColor=none;fillColor=none;align=center;verticalAlign=middle;whiteSpace=wrap;rounded=0;" vertex="1" parent="1">
          <mxGeometry x="2615" y="-160" width="125" height="30" as="geometry" />
        </mxCell>
        <mxCell id="zCK_g5lJNB62o4PVmk3n-85" value="" style="endArrow=none;html=1;rounded=0;exitX=0;exitY=0.5;exitDx=0;exitDy=0;entryX=1;entryY=0.5;entryDx=0;entryDy=0;" edge="1" parent="1" target="zCK_g5lJNB62o4PVmk3n-82">
          <mxGeometry width="50" height="50" relative="1" as="geometry">
            <mxPoint x="2582.5" y="-165.5" as="sourcePoint" />
            <mxPoint x="2782.5" y="-165" as="targetPoint" />
          </mxGeometry>
        </mxCell>
        <mxCell id="zCK_g5lJNB62o4PVmk3n-86" value="" style="endArrow=classic;html=1;rounded=0;dashed=1;entryX=0.5;entryY=1;entryDx=0;entryDy=0;exitX=0.5;exitY=0;exitDx=0;exitDy=0;" edge="1" parent="1" source="zCK_g5lJNB62o4PVmk3n-75" target="zCK_g5lJNB62o4PVmk3n-84">
          <mxGeometry width="50" height="50" relative="1" as="geometry">
            <mxPoint x="2685" y="120" as="sourcePoint" />
            <mxPoint x="2685" y="60" as="targetPoint" />
            <Array as="points" />
          </mxGeometry>
        </mxCell>
        <mxCell id="zCK_g5lJNB62o4PVmk3n-87" value="&amp;lt;Include&amp;gt;" style="text;html=1;strokeColor=none;fillColor=none;align=center;verticalAlign=middle;whiteSpace=wrap;rounded=0;" vertex="1" parent="1">
          <mxGeometry x="2680" y="-100" width="60" height="30" as="geometry" />
        </mxCell>
        <mxCell id="zCK_g5lJNB62o4PVmk3n-88" value="Add User To the System" style="ellipse;whiteSpace=wrap;html=1;rounded=0;shadow=1;comic=0;labelBackgroundColor=none;strokeWidth=1;fontFamily=Verdana;fontSize=12;align=center;" vertex="1" parent="1">
          <mxGeometry x="2390" y="-200" width="120" height="70" as="geometry" />
        </mxCell>
        <mxCell id="zCK_g5lJNB62o4PVmk3n-89" value="" style="endArrow=classic;html=1;rounded=0;dashed=1;exitX=1.042;exitY=0.6;exitDx=0;exitDy=0;exitPerimeter=0;" edge="1" parent="1" source="zCK_g5lJNB62o4PVmk3n-88">
          <mxGeometry width="50" height="50" relative="1" as="geometry">
            <mxPoint x="2685" y="120" as="sourcePoint" />
            <mxPoint x="2580" y="-160" as="targetPoint" />
            <Array as="points" />
          </mxGeometry>
        </mxCell>
        <mxCell id="zCK_g5lJNB62o4PVmk3n-90" value="&amp;lt;exclude&amp;gt;" style="text;html=1;strokeColor=none;fillColor=none;align=center;verticalAlign=middle;whiteSpace=wrap;rounded=0;" vertex="1" parent="1">
          <mxGeometry x="2520" y="-190" width="60" height="30" as="geometry" />
        </mxCell>
        <mxCell id="zCK_g5lJNB62o4PVmk3n-91" value="" style="endArrow=none;html=1;rounded=0;entryX=0;entryY=0.3333333333333333;entryDx=0;entryDy=0;entryPerimeter=0;exitX=0.981;exitY=0.645;exitDx=0;exitDy=0;exitPerimeter=0;" edge="1" parent="1" source="zCK_g5lJNB62o4PVmk3n-75" target="zCK_g5lJNB62o4PVmk3n-74">
          <mxGeometry width="50" height="50" relative="1" as="geometry">
            <mxPoint x="2270" y="40" as="sourcePoint" />
            <mxPoint x="2320" y="-10" as="targetPoint" />
          </mxGeometry>
        </mxCell>
        <mxCell id="zCK_g5lJNB62o4PVmk3n-92" value="Search Insuarance" style="ellipse;whiteSpace=wrap;html=1;rounded=0;shadow=1;comic=0;labelBackgroundColor=none;strokeWidth=1;fontFamily=Verdana;fontSize=12;align=center;" vertex="1" parent="1">
          <mxGeometry x="2617.5" y="80" width="120" height="70" as="geometry" />
        </mxCell>
        <mxCell id="zCK_g5lJNB62o4PVmk3n-93" value="" style="endArrow=none;html=1;rounded=0;exitX=0;exitY=0.3333333333333333;exitDx=0;exitDy=0;exitPerimeter=0;entryX=1.004;entryY=0.357;entryDx=0;entryDy=0;entryPerimeter=0;" edge="1" parent="1" source="zCK_g5lJNB62o4PVmk3n-74" target="zCK_g5lJNB62o4PVmk3n-92">
          <mxGeometry width="50" height="50" relative="1" as="geometry">
            <mxPoint x="2270" y="150" as="sourcePoint" />
            <mxPoint x="2320" y="100" as="targetPoint" />
          </mxGeometry>
        </mxCell>
        <mxCell id="zCK_g5lJNB62o4PVmk3n-94" value="Insurance Facility" style="ellipse;whiteSpace=wrap;html=1;rounded=0;shadow=1;comic=0;labelBackgroundColor=none;strokeWidth=1;fontFamily=Verdana;fontSize=12;align=center;" vertex="1" parent="1">
          <mxGeometry x="2400" width="120" height="70" as="geometry" />
        </mxCell>
        <mxCell id="zCK_g5lJNB62o4PVmk3n-95" value="Insurance Availability" style="ellipse;whiteSpace=wrap;html=1;rounded=0;shadow=1;comic=0;labelBackgroundColor=none;strokeWidth=1;fontFamily=Verdana;fontSize=12;align=center;" vertex="1" parent="1">
          <mxGeometry x="2390" y="90" width="120" height="70" as="geometry" />
        </mxCell>
        <mxCell id="zCK_g5lJNB62o4PVmk3n-96" value="Insurance Payment&amp;nbsp;" style="ellipse;whiteSpace=wrap;html=1;rounded=0;shadow=1;comic=0;labelBackgroundColor=none;strokeWidth=1;fontFamily=Verdana;fontSize=12;align=center;" vertex="1" parent="1">
          <mxGeometry x="2400" y="180" width="120" height="70" as="geometry" />
        </mxCell>
        <mxCell id="zCK_g5lJNB62o4PVmk3n-97" value="" style="endArrow=none;html=1;rounded=0;entryX=0.5;entryY=1;entryDx=0;entryDy=0;" edge="1" parent="1" target="zCK_g5lJNB62o4PVmk3n-94">
          <mxGeometry width="50" height="50" relative="1" as="geometry">
            <mxPoint x="2550" y="80" as="sourcePoint" />
            <mxPoint x="2500" y="80" as="targetPoint" />
          </mxGeometry>
        </mxCell>
        <mxCell id="zCK_g5lJNB62o4PVmk3n-98" value="" style="endArrow=none;html=1;rounded=0;entryX=0.967;entryY=0.729;entryDx=0;entryDy=0;entryPerimeter=0;" edge="1" parent="1" target="zCK_g5lJNB62o4PVmk3n-96">
          <mxGeometry width="50" height="50" relative="1" as="geometry">
            <mxPoint x="2550" y="200" as="sourcePoint" />
            <mxPoint x="2450" y="200" as="targetPoint" />
          </mxGeometry>
        </mxCell>
        <mxCell id="zCK_g5lJNB62o4PVmk3n-99" value="" style="endArrow=none;html=1;rounded=0;" edge="1" parent="1">
          <mxGeometry width="50" height="50" relative="1" as="geometry">
            <mxPoint x="2550" y="80" as="sourcePoint" />
            <mxPoint x="2550" y="200" as="targetPoint" />
          </mxGeometry>
        </mxCell>
        <mxCell id="zCK_g5lJNB62o4PVmk3n-100" value="" style="endArrow=classic;html=1;rounded=0;entryX=0.004;entryY=0.6;entryDx=0;entryDy=0;entryPerimeter=0;exitX=1;exitY=0.5;exitDx=0;exitDy=0;" edge="1" parent="1" source="zCK_g5lJNB62o4PVmk3n-95" target="zCK_g5lJNB62o4PVmk3n-92">
          <mxGeometry width="50" height="50" relative="1" as="geometry">
            <mxPoint x="2270" y="140" as="sourcePoint" />
            <mxPoint x="2320" y="90" as="targetPoint" />
          </mxGeometry>
        </mxCell>
        <mxCell id="zCK_g5lJNB62o4PVmk3n-102" value="Customer" style="shape=umlActor;verticalLabelPosition=bottom;verticalAlign=top;html=1;outlineConnect=0;" vertex="1" parent="1">
          <mxGeometry x="2836" y="430" width="30" height="60" as="geometry" />
        </mxCell>
        <mxCell id="zCK_g5lJNB62o4PVmk3n-103" value="" style="endArrow=classic;html=1;rounded=0;" edge="1" parent="1">
          <mxGeometry width="50" height="50" relative="1" as="geometry">
            <mxPoint x="2850" y="420" as="sourcePoint" />
            <mxPoint x="2850" y="160" as="targetPoint" />
          </mxGeometry>
        </mxCell>
        <mxCell id="zCK_g5lJNB62o4PVmk3n-104" value="" style="ellipse;whiteSpace=wrap;html=1;rounded=0;shadow=1;comic=0;labelBackgroundColor=none;strokeWidth=1;fontFamily=Verdana;fontSize=12;align=center;" vertex="1" parent="1">
          <mxGeometry x="2400" y="475" width="150" height="90" as="geometry" />
        </mxCell>
        <mxCell id="zCK_g5lJNB62o4PVmk3n-105" value="&lt;span style=&quot;font-family: &amp;#34;verdana&amp;#34;&quot;&gt;Login User Profile&lt;/span&gt;" style="text;html=1;strokeColor=none;fillColor=none;align=center;verticalAlign=middle;whiteSpace=wrap;rounded=0;" vertex="1" parent="1">
          <mxGeometry x="2410" y="490" width="120" height="30" as="geometry" />
        </mxCell>
        <mxCell id="zCK_g5lJNB62o4PVmk3n-107" value="Ext P : If Customer Entered Wrong Details" style="text;html=1;strokeColor=none;fillColor=none;align=center;verticalAlign=middle;whiteSpace=wrap;rounded=0;" vertex="1" parent="1">
          <mxGeometry x="2404" y="522" width="140" height="30" as="geometry" />
        </mxCell>
        <mxCell id="zCK_g5lJNB62o4PVmk3n-108" value="" style="endArrow=none;html=1;rounded=0;exitX=0;exitY=0.5;exitDx=0;exitDy=0;entryX=1;entryY=0.5;entryDx=0;entryDy=0;" edge="1" parent="1" source="zCK_g5lJNB62o4PVmk3n-104" target="zCK_g5lJNB62o4PVmk3n-104">
          <mxGeometry width="50" height="50" relative="1" as="geometry">
            <mxPoint x="2411.42" y="520.0100000000002" as="sourcePoint" />
            <mxPoint x="2540" y="520" as="targetPoint" />
          </mxGeometry>
        </mxCell>
        <mxCell id="zCK_g5lJNB62o4PVmk3n-109" value="Leave a Comment" style="ellipse;whiteSpace=wrap;html=1;rounded=0;shadow=1;comic=0;labelBackgroundColor=none;strokeWidth=1;fontFamily=Verdana;fontSize=12;align=center;" vertex="1" parent="1">
          <mxGeometry x="2350" y="900" width="120" height="70" as="geometry" />
        </mxCell>
        <mxCell id="zCK_g5lJNB62o4PVmk3n-111" value="" style="endArrow=classic;html=1;rounded=0;dashed=1;exitX=0.5;exitY=0;exitDx=0;exitDy=0;entryX=0.5;entryY=1;entryDx=0;entryDy=0;" edge="1" parent="1" source="zCK_g5lJNB62o4PVmk3n-117" target="zCK_g5lJNB62o4PVmk3n-104">
          <mxGeometry width="50" height="50" relative="1" as="geometry">
            <mxPoint x="2378.96" y="640.98" as="sourcePoint" />
            <mxPoint x="2450" y="560" as="targetPoint" />
            <Array as="points" />
          </mxGeometry>
        </mxCell>
        <mxCell id="zCK_g5lJNB62o4PVmk3n-112" value="" style="endArrow=classic;html=1;rounded=0;dashed=1;exitX=0.5;exitY=0;exitDx=0;exitDy=0;entryX=0.256;entryY=0.98;entryDx=0;entryDy=0;entryPerimeter=0;" edge="1" parent="1" source="zCK_g5lJNB62o4PVmk3n-109" target="zCK_g5lJNB62o4PVmk3n-118">
          <mxGeometry width="50" height="50" relative="1" as="geometry">
            <mxPoint x="2388.96" y="650.98" as="sourcePoint" />
            <mxPoint x="3180" y="590" as="targetPoint" />
            <Array as="points" />
          </mxGeometry>
        </mxCell>
        <mxCell id="zCK_g5lJNB62o4PVmk3n-113" value="&amp;lt;exclude&amp;gt;" style="text;html=1;strokeColor=none;fillColor=none;align=center;verticalAlign=middle;whiteSpace=wrap;rounded=0;" vertex="1" parent="1">
          <mxGeometry x="2404" y="580" width="60" height="30" as="geometry" />
        </mxCell>
        <mxCell id="zCK_g5lJNB62o4PVmk3n-116" value="" style="endArrow=none;html=1;rounded=0;exitX=0;exitY=0.3333333333333333;exitDx=0;exitDy=0;exitPerimeter=0;entryX=1;entryY=0.5;entryDx=0;entryDy=0;" edge="1" parent="1" source="zCK_g5lJNB62o4PVmk3n-102" target="zCK_g5lJNB62o4PVmk3n-104">
          <mxGeometry width="50" height="50" relative="1" as="geometry">
            <mxPoint x="2850" y="110" as="sourcePoint" />
            <mxPoint x="2747.9799999999996" y="114.99000000000001" as="targetPoint" />
          </mxGeometry>
        </mxCell>
        <mxCell id="zCK_g5lJNB62o4PVmk3n-118" value="" style="ellipse;whiteSpace=wrap;html=1;rounded=0;shadow=1;comic=0;labelBackgroundColor=none;strokeWidth=1;fontFamily=Verdana;fontSize=12;align=center;" vertex="1" parent="1">
          <mxGeometry x="2394" y="735" width="176" height="100" as="geometry" />
        </mxCell>
        <mxCell id="zCK_g5lJNB62o4PVmk3n-117" value="Ask to Re-Enter Details" style="ellipse;whiteSpace=wrap;html=1;rounded=0;shadow=1;comic=0;labelBackgroundColor=none;strokeWidth=1;fontFamily=Verdana;fontSize=12;align=center;" vertex="1" parent="1">
          <mxGeometry x="2415" y="630" width="120" height="57" as="geometry" />
        </mxCell>
        <mxCell id="zCK_g5lJNB62o4PVmk3n-119" value="Give Star Rate" style="text;html=1;strokeColor=none;fillColor=none;align=center;verticalAlign=middle;whiteSpace=wrap;rounded=0;" vertex="1" parent="1">
          <mxGeometry x="2427" y="750" width="110" height="30" as="geometry" />
        </mxCell>
        <mxCell id="zCK_g5lJNB62o4PVmk3n-120" value="" style="endArrow=none;html=1;rounded=0;exitX=0;exitY=0.5;exitDx=0;exitDy=0;entryX=1;entryY=0.5;entryDx=0;entryDy=0;" edge="1" parent="1" target="zCK_g5lJNB62o4PVmk3n-118">
          <mxGeometry width="50" height="50" relative="1" as="geometry">
            <mxPoint x="2395" y="784.5" as="sourcePoint" />
            <mxPoint x="2545" y="784.5" as="targetPoint" />
          </mxGeometry>
        </mxCell>
        <mxCell id="zCK_g5lJNB62o4PVmk3n-121" value="Ext P: If customer Want" style="text;html=1;strokeColor=none;fillColor=none;align=center;verticalAlign=middle;whiteSpace=wrap;rounded=0;" vertex="1" parent="1">
          <mxGeometry x="2427" y="790" width="110" height="30" as="geometry" />
        </mxCell>
        <mxCell id="zCK_g5lJNB62o4PVmk3n-122" value="" style="endArrow=none;html=1;rounded=0;" edge="1" parent="1" target="zCK_g5lJNB62o4PVmk3n-118">
          <mxGeometry width="50" height="50" relative="1" as="geometry">
            <mxPoint x="2830" y="450" as="sourcePoint" />
            <mxPoint x="2560" y="530" as="targetPoint" />
          </mxGeometry>
        </mxCell>
        <mxCell id="zCK_g5lJNB62o4PVmk3n-123" value="Cancel Ticket Counter" style="ellipse;whiteSpace=wrap;html=1;rounded=0;shadow=1;comic=0;labelBackgroundColor=none;strokeWidth=1;fontFamily=Verdana;fontSize=12;align=center;" vertex="1" parent="1">
          <mxGeometry x="550" y="660" width="120" height="70" as="geometry" />
        </mxCell>
        <mxCell id="zCK_g5lJNB62o4PVmk3n-124" value="Cancel Ticket By System" style="ellipse;whiteSpace=wrap;html=1;rounded=0;shadow=1;comic=0;labelBackgroundColor=none;strokeWidth=1;fontFamily=Verdana;fontSize=12;align=center;" vertex="1" parent="1">
          <mxGeometry x="530" y="530" width="120" height="70" as="geometry" />
        </mxCell>
        <mxCell id="zCK_g5lJNB62o4PVmk3n-125" value="Cancel Ticket Online" style="ellipse;whiteSpace=wrap;html=1;rounded=0;shadow=1;comic=0;labelBackgroundColor=none;strokeWidth=1;fontFamily=Verdana;fontSize=12;align=center;" vertex="1" parent="1">
          <mxGeometry x="530" y="420" width="120" height="70" as="geometry" />
        </mxCell>
        <mxCell id="zCK_g5lJNB62o4PVmk3n-126" value="Book Ticket Counter" style="ellipse;whiteSpace=wrap;html=1;rounded=0;shadow=1;comic=0;labelBackgroundColor=none;strokeWidth=1;fontFamily=Verdana;fontSize=12;align=center;" vertex="1" parent="1">
          <mxGeometry x="520" y="300" width="120" height="70" as="geometry" />
        </mxCell>
        <mxCell id="zCK_g5lJNB62o4PVmk3n-127" value="Book Ticket By System" style="ellipse;whiteSpace=wrap;html=1;rounded=0;shadow=1;comic=0;labelBackgroundColor=none;strokeWidth=1;fontFamily=Verdana;fontSize=12;align=center;" vertex="1" parent="1">
          <mxGeometry x="530" y="180" width="120" height="70" as="geometry" />
        </mxCell>
        <mxCell id="zCK_g5lJNB62o4PVmk3n-128" value="Book Ticket Online" style="ellipse;whiteSpace=wrap;html=1;rounded=0;shadow=1;comic=0;labelBackgroundColor=none;strokeWidth=1;fontFamily=Verdana;fontSize=12;align=center;" vertex="1" parent="1">
          <mxGeometry x="2091" y="-20" width="120" height="70" as="geometry" />
        </mxCell>
        <mxCell id="zCK_g5lJNB62o4PVmk3n-129" value="Cancel Ticket Counter" style="ellipse;whiteSpace=wrap;html=1;rounded=0;shadow=1;comic=0;labelBackgroundColor=none;strokeWidth=1;fontFamily=Verdana;fontSize=12;align=center;" vertex="1" parent="1">
          <mxGeometry x="2090" y="590" width="120" height="70" as="geometry" />
        </mxCell>
        <mxCell id="zCK_g5lJNB62o4PVmk3n-130" value="Cancel Ticket By System" style="ellipse;whiteSpace=wrap;html=1;rounded=0;shadow=1;comic=0;labelBackgroundColor=none;strokeWidth=1;fontFamily=Verdana;fontSize=12;align=center;" vertex="1" parent="1">
          <mxGeometry x="2090" y="470" width="120" height="70" as="geometry" />
        </mxCell>
        <mxCell id="zCK_g5lJNB62o4PVmk3n-131" value="Cancel Ticket Online" style="ellipse;whiteSpace=wrap;html=1;rounded=0;shadow=1;comic=0;labelBackgroundColor=none;strokeWidth=1;fontFamily=Verdana;fontSize=12;align=center;" vertex="1" parent="1">
          <mxGeometry x="2090" y="360" width="120" height="70" as="geometry" />
        </mxCell>
        <mxCell id="zCK_g5lJNB62o4PVmk3n-132" value="Book Ticket Counter" style="ellipse;whiteSpace=wrap;html=1;rounded=0;shadow=1;comic=0;labelBackgroundColor=none;strokeWidth=1;fontFamily=Verdana;fontSize=12;align=center;" vertex="1" parent="1">
          <mxGeometry x="2093" y="240" width="120" height="70" as="geometry" />
        </mxCell>
        <mxCell id="zCK_g5lJNB62o4PVmk3n-133" value="Book Ticket By System" style="ellipse;whiteSpace=wrap;html=1;rounded=0;shadow=1;comic=0;labelBackgroundColor=none;strokeWidth=1;fontFamily=Verdana;fontSize=12;align=center;" vertex="1" parent="1">
          <mxGeometry x="2090" y="120" width="120" height="70" as="geometry" />
        </mxCell>
        <mxCell id="zCK_g5lJNB62o4PVmk3n-134" value="" style="endArrow=none;html=1;rounded=0;entryX=1;entryY=0;entryDx=0;entryDy=0;" edge="1" parent="1" target="zCK_g5lJNB62o4PVmk3n-129">
          <mxGeometry width="50" height="50" relative="1" as="geometry">
            <mxPoint x="2830" y="450" as="sourcePoint" />
            <mxPoint x="2560" y="530" as="targetPoint" />
            <Array as="points">
              <mxPoint x="2570" y="450" />
              <mxPoint x="2400" y="470" />
              <mxPoint x="2370" y="510" />
            </Array>
          </mxGeometry>
        </mxCell>
        <mxCell id="zCK_g5lJNB62o4PVmk3n-135" value="" style="endArrow=none;html=1;rounded=0;entryX=1;entryY=0;entryDx=0;entryDy=0;" edge="1" parent="1">
          <mxGeometry width="50" height="50" relative="1" as="geometry">
            <mxPoint x="2830" y="450" as="sourcePoint" />
            <mxPoint x="2210.0015148825073" y="510.50770578142465" as="targetPoint" />
            <Array as="points">
              <mxPoint x="2587" y="420" />
              <mxPoint x="2387" y="440" />
            </Array>
          </mxGeometry>
        </mxCell>
        <mxCell id="zCK_g5lJNB62o4PVmk3n-136" value="" style="endArrow=none;html=1;rounded=0;entryX=1;entryY=0;entryDx=0;entryDy=0;" edge="1" parent="1">
          <mxGeometry width="50" height="50" relative="1" as="geometry">
            <mxPoint x="2830" y="450" as="sourcePoint" />
            <mxPoint x="2213.0015148825078" y="400.50770578142465" as="targetPoint" />
            <Array as="points">
              <mxPoint x="2590" y="390" />
              <mxPoint x="2390" y="401" />
            </Array>
          </mxGeometry>
        </mxCell>
        <mxCell id="zCK_g5lJNB62o4PVmk3n-137" value="" style="endArrow=none;html=1;rounded=0;entryX=1;entryY=0;entryDx=0;entryDy=0;" edge="1" parent="1">
          <mxGeometry width="50" height="50" relative="1" as="geometry">
            <mxPoint x="2830" y="450" as="sourcePoint" />
            <mxPoint x="2180.0015148825078" y="310.50770578142465" as="targetPoint" />
            <Array as="points">
              <mxPoint x="2550" y="360" />
              <mxPoint x="2330" y="350" />
            </Array>
          </mxGeometry>
        </mxCell>
        <mxCell id="zCK_g5lJNB62o4PVmk3n-138" value="" style="endArrow=none;html=1;rounded=0;entryX=1;entryY=0;entryDx=0;entryDy=0;" edge="1" parent="1">
          <mxGeometry width="50" height="50" relative="1" as="geometry">
            <mxPoint x="2820" y="450" as="sourcePoint" />
            <mxPoint x="2180.0015148825078" y="185.25770578142465" as="targetPoint" />
            <Array as="points">
              <mxPoint x="2540" y="330" />
              <mxPoint x="2320" y="280" />
            </Array>
          </mxGeometry>
        </mxCell>
        <mxCell id="zCK_g5lJNB62o4PVmk3n-139" value="" style="endArrow=none;html=1;rounded=0;entryX=1;entryY=1;entryDx=0;entryDy=0;" edge="1" parent="1" target="zCK_g5lJNB62o4PVmk3n-128">
          <mxGeometry width="50" height="50" relative="1" as="geometry">
            <mxPoint x="2830" y="450" as="sourcePoint" />
            <mxPoint x="2190.0015148825078" y="195.25770578142465" as="targetPoint" />
            <Array as="points">
              <mxPoint x="2580" y="320" />
              <mxPoint x="2360" y="260" />
            </Array>
          </mxGeometry>
        </mxCell>
      </root>
    </mxGraphModel>
  </diagram>
</mxfile>
